<svg id="Layer_1" data-name="Layer 1" xmlns="http://www.w3.org/2000/svg" viewBox="0 0 64 64"><title>cup cake_1</title><path d="M46,61H18a1,1,0,0,1-1-.9l-3.79-38a.41.41,0,0,1,0-.11L13,20.1a1,1,0,0,1,.26-.77A1,1,0,0,1,14,19H50a1,1,0,0,1,.74.33,1,1,0,0,1,.26.77l-4,40A1,1,0,0,1,46,61ZM18.9,59H45.1l3.8-38H15.1l.1.91V22Z" id="id_160" style="fill: rgb(255, 255, 255);"></path><path d="M25.08,45H16.4a1,1,0,0,1-1-.9l-.8-8a1,1,0,0,1,.26-.77A1,1,0,0,1,15.6,35h9.48a1,1,0,0,1,.86,1.51,6.95,6.95,0,0,0,0,7A1,1,0,0,1,25.08,45ZM17.3,43h6.21a9.08,9.08,0,0,1,0-6h-6.8Z" id="id_161" style="fill: rgb(255, 255, 255);"></path><path d="M47.6,45H38.92a1,1,0,0,1-.86-1.51,6.95,6.95,0,0,0,0-7A1,1,0,0,1,38.92,35H48.4a1,1,0,0,1,.74.33,1,1,0,0,1,.26.77l-.8,8A1,1,0,0,1,47.6,45Zm-7.11-2H46.7l.59-6h-6.8a9.08,9.08,0,0,1,0,6Z" id="id_162" style="fill: rgb(255, 255, 255);"></path><path d="M32,49a9,9,0,0,1-7.79-4.5,9,9,0,0,1,0-9,8.53,8.53,0,0,1,1.41-1.86,9,9,0,0,1,12.73,0,8.28,8.28,0,0,1,1.43,1.88,8.94,8.94,0,0,1,0,9,8.53,8.53,0,0,1-1.41,1.86A9,9,0,0,1,32,49Zm0-16a7,7,0,0,0-5,2A6.58,6.58,0,0,0,26,36.49,7,7,0,0,0,32,47a7,7,0,0,0,5-2,6.58,6.58,0,0,0,1.09-1.44,7,7,0,0,0,0-7A6.33,6.33,0,0,0,37,35.05,7,7,0,0,0,32,33Z" id="id_163" style="fill: rgb(255, 255, 255);"></path><path d="M14.2,23a1,1,0,0,1-1-.8A11,11,0,0,1,13,20a1,1,0,0,1,2-.1l.2,2A1,1,0,0,1,14.35,23Z" id="id_164" style="fill: rgb(255, 255, 255);"></path><path d="M50,21H14a4,4,0,1,1,1.33-7.77c.27-.34.57-.68.89-1a10.88,10.88,0,0,1,5.91-3.06,11.08,11.08,0,0,1,2.09-2.94,11,11,0,0,1,15.56,0,11.08,11.08,0,0,1,2.09,2.94,10.88,10.88,0,0,1,5.91,3.06c.32.33.62.67.89,1A4,4,0,1,1,50,21ZM14,15a2,2,0,0,0-2,2,2,2,0,0,0,2,2H50a2,2,0,0,0,1.41-3.41,2,2,0,0,0-2.53-.25,1.06,1.06,0,0,1-.76.14,1,1,0,0,1-.63-.45,8.31,8.31,0,0,0-1.13-1.39,8.86,8.86,0,0,0-5.29-2.58,1,1,0,0,1-.8-.6,8.85,8.85,0,0,0-1.91-2.82,9,9,0,0,0-12.72,0,8.85,8.85,0,0,0-1.91,2.82,1,1,0,0,1-.8.6,8.86,8.86,0,0,0-5.29,2.58A8.31,8.31,0,0,0,16.51,15a1,1,0,0,1-.63.45,1.05,1.05,0,0,1-.76-.14A2.1,2.1,0,0,0,14,15Z" id="id_165" style="fill: rgb(255, 255, 255);"></path><path d="M49.8,23h-.15a1,1,0,0,1-.85-1.09l.2-2a1,1,0,0,1,2,.1,11,11,0,0,1-.22,2.21A1,1,0,0,1,49.8,23Z" id="id_166" style="fill: rgb(255, 255, 255);"></path></svg>