<svg id="Layer_1" data-name="Layer 1" xmlns="http://www.w3.org/2000/svg" viewBox="0 0 64 64"><title>celebration</title><path d="M19.58,33.24a10.25,10.25,0,0,1-2-.2h0A10,10,0,0,1,9.75,21.26l1.77-8.82a1,1,0,0,1,.43-.63,1,1,0,0,1,.75-.15L30.35,15.2a1,1,0,0,1,.63.43,1,1,0,0,1,.15.75L29.36,25.2a10,10,0,0,1-9.78,8Zm-6.3-19.43-1.57,7.85A8,8,0,0,0,18,31.08h0a8,8,0,0,0,9.42-6.27L29,17Z" id="id_149" style="fill: rgb(255, 255, 255);"></path><path d="M13.46,54.63l-.2,0a1,1,0,0,1-.79-1.18L16.8,31.86A1,1,0,0,1,18,31.08a1,1,0,0,1,.78,1.17L14.44,53.82A1,1,0,0,1,13.46,54.63Z" id="id_150" style="fill: rgb(255, 255, 255);"></path><path d="M19.53,59.93l-.2,0L5.61,57.15a1,1,0,0,1-.74-.63,1,1,0,0,1,.15-1L7.76,52a1,1,0,0,1,1-.37l9.8,2a1,1,0,0,1,.77.72l1.18,4.31a1,1,0,0,1-.24,1A1,1,0,0,1,19.53,59.93ZM7.59,55.51l10.55,2.12-.59-2.16L9,53.74Z" id="id_151" style="fill: rgb(255, 255, 255);"></path><path d="M26.41,22.67a11,11,0,0,1-6.25-2,9,9,0,0,0-6.22-1.52l-2.5.31a1,1,0,1,1-.24-2l2.5-.32a11.3,11.3,0,0,1,3.53.14,11,11,0,0,1,4.07,1.73,9,9,0,0,0,6.22,1.52L29,20.42a1,1,0,0,1,1.11.87,1,1,0,0,1-.87,1.12l-1.45.17A10.47,10.47,0,0,1,26.41,22.67Z" id="id_152" style="fill: rgb(255, 255, 255);"></path><path d="M44.42,33.24a10,10,0,0,1-9.78-8l-1.77-8.82a1,1,0,0,1,.15-.75,1,1,0,0,1,.63-.43L51.3,11.66a1,1,0,0,1,.75.15,1,1,0,0,1,.43.63l1.77,8.82A10,10,0,0,1,46.41,33h0A10.25,10.25,0,0,1,44.42,33.24ZM35,17l1.57,7.85A8,8,0,0,0,46,31.08h0a8,8,0,0,0,6.27-9.42l-1.57-7.85Z" id="id_153" style="fill: rgb(255, 255, 255);"></path><path d="M50.54,54.63a1,1,0,0,1-1-.81L45.24,32.25A1,1,0,0,1,46,31.08a1,1,0,0,1,1.18.78l4.33,21.57a1,1,0,0,1-.79,1.18Z" id="id_154" style="fill: rgb(255, 255, 255);"></path><path d="M44.47,59.93a1,1,0,0,1-.73-.32,1,1,0,0,1-.24-1l1.18-4.31a1,1,0,0,1,.77-.72l9.8-2a1,1,0,0,1,1,.37L59,55.56a1,1,0,0,1,.15,1,1,1,0,0,1-.74.63L44.67,59.91Zm2-4.46-.59,2.16,10.55-2.12L55,53.74Z" id="id_155" style="fill: rgb(255, 255, 255);"></path><path d="M37.59,22.67a10.47,10.47,0,0,1-1.36-.09l-1.45-.17a1,1,0,0,1,.24-2l1.46.18a9,9,0,0,0,6.22-1.52,11,11,0,0,1,4.07-1.73,11.3,11.3,0,0,1,3.53-.14l2.5.32a1,1,0,0,1-.24,2l-2.51-.31a9,9,0,0,0-6.21,1.52A11,11,0,0,1,37.59,22.67Z" id="id_156" style="fill: rgb(255, 252, 252);"></path><path d="M32,11a1,1,0,0,1-1-1V4a1,1,0,0,1,2,0v6A1,1,0,0,1,32,11Z" id="id_157" style="fill: rgb(255, 255, 255);"></path><path d="M35,13a1,1,0,0,1-.71-.29,1,1,0,0,1,0-1.42,13.9,13.9,0,0,1,7.77-3.88l2.8-.4a1,1,0,1,1,.28,2l-2.8.4a11.78,11.78,0,0,0-6.63,3.32A1,1,0,0,1,35,13Z" id="id_158" style="fill: rgb(255, 255, 255);"></path><path d="M29,13a1,1,0,0,1-.71-.29,11.78,11.78,0,0,0-6.63-3.32L18.86,9a1,1,0,0,1,.28-2l2.8.4a13.9,13.9,0,0,1,7.77,3.88,1,1,0,0,1,0,1.42A1,1,0,0,1,29,13Z" id="id_159" style="fill: rgb(255, 255, 255);"></path></svg>