<svg width="64" height="64" viewBox="0 0 64 64" fill="none" xmlns="http://www.w3.org/2000/svg">
<path d="M32 11C27.8466 11 23.7865 12.2316 20.333 14.5391C16.8796 16.8466 14.188 20.1264 12.5985 23.9636C11.0091 27.8009 10.5932 32.0233 11.4035 36.0969C12.2138 40.1705 14.2139 43.9123 17.1508 46.8492C20.0877 49.7861 23.8295 51.7862 27.9031 52.5965C31.9767 53.4068 36.1991 52.9909 40.0364 51.4015C43.8736 49.812 47.1534 47.1204 49.4609 43.667C51.7684 40.2135 53 36.1534 53 32C52.9937 26.4324 50.7791 21.0947 46.8422 17.1578C42.9053 13.2209 37.5676 11.0064 32 11V11ZM32 51C28.2422 51 24.5687 49.8857 21.4442 47.7979C18.3196 45.7102 15.8844 42.7428 14.4463 39.271C13.0082 35.7992 12.632 31.9789 13.3651 28.2933C14.0982 24.6076 15.9078 21.2222 18.565 18.565C21.2222 15.9078 24.6077 14.0982 28.2933 13.3651C31.9789 12.632 35.7992 13.0082 39.271 14.4463C42.7428 15.8844 45.7102 18.3196 47.7979 21.4442C49.8857 24.5687 51 28.2422 51 32C50.9944 37.0374 48.9909 41.8669 45.4289 45.4289C41.8669 48.9909 37.0374 50.9944 32 51V51Z" fill="#ffffff" id="id_133"></path>
<path d="M10 2V18C10 18.2652 9.89464 18.5196 9.70711 18.7071C9.51957 18.8946 9.26522 19 9 19H8V2H6V19H5C4.73478 19 4.48043 18.8946 4.29289 18.7071C4.10536 18.5196 4 18.2652 4 18V2H2V18C2.00237 18.7949 2.31921 19.5566 2.8813 20.1187C3.4434 20.6808 4.20508 20.9976 5 21H6V42H5C4.73478 42 4.48043 42.1054 4.29289 42.2929C4.10536 42.4804 4 42.7348 4 43V59C4 59.7956 4.31607 60.5587 4.87868 61.1213C5.44129 61.6839 6.20435 62 7 62C7.79565 62 8.55871 61.6839 9.12132 61.1213C9.68393 60.5587 10 59.7956 10 59V43C10 42.7348 9.89464 42.4804 9.70711 42.2929C9.51957 42.1054 9.26522 42 9 42H8V21H9C9.79492 20.9976 10.5566 20.6808 11.1187 20.1187C11.6808 19.5566 11.9976 18.7949 12 18V2H10ZM8 59C8 59.2652 7.89464 59.5196 7.70711 59.7071C7.51957 59.8946 7.26522 60 7 60C6.73478 60 6.48043 59.8946 6.29289 59.7071C6.10536 59.5196 6 59.2652 6 59V44H8V59Z" fill="#ffffff" id="id_134"></path>
<path d="M61 2C59.1441 2.00212 57.3649 2.7403 56.0526 4.05259C54.7403 5.36489 54.0021 7.14413 54 9V41C54 41.2652 54.1054 41.5196 54.2929 41.7071C54.4804 41.8946 54.7348 42 55 42H56V59C56 59.7956 56.3161 60.5587 56.8787 61.1213C57.4413 61.6839 58.2044 62 59 62C59.7956 62 60.5587 61.6839 61.1213 61.1213C61.6839 60.5587 62 59.7956 62 59V3C62 2.73478 61.8946 2.48043 61.7071 2.29289C61.5196 2.10536 61.2652 2 61 2V2ZM60 59C60 59.2652 59.8946 59.5196 59.7071 59.7071C59.5196 59.8946 59.2652 60 59 60C58.7348 60 58.4804 59.8946 58.2929 59.7071C58.1054 59.5196 58 59.2652 58 59V42H60V59ZM60 40H56V9C56.0015 7.8478 56.4001 6.73132 57.1287 5.83875C57.8573 4.94618 58.8714 4.3321 60 4.1V40Z" fill="#ffffff" id="id_135"></path>
<path d="M38 20C36.7915 20.0006 35.6037 20.314 34.5522 20.9098C33.5008 21.5057 32.6215 22.3635 32 23.4C31.2119 22.0886 30.0159 21.0715 28.595 20.5043C27.174 19.9371 25.6063 19.8511 24.1318 20.2594C22.6574 20.6678 21.3573 21.5479 20.4305 22.7652C19.5037 23.9826 19.0012 25.47 19 27C19 34.415 30.894 43.42 31.4 43.8C31.5731 43.9298 31.7836 44 32 44C32.2164 44 32.4269 43.9298 32.6 43.8C33.106 43.42 45 34.415 45 27C44.9979 25.1441 44.2597 23.3649 42.9474 22.0526C41.6351 20.7403 39.8559 20.0021 38 20V20ZM32 41.734C28.439 38.931 21 32.026 21 27C21 25.6739 21.5268 24.4021 22.4645 23.4645C23.4021 22.5268 24.6739 22 26 22C27.3261 22 28.5979 22.5268 29.5355 23.4645C30.4732 24.4021 31 25.6739 31 27C31 27.2652 31.1054 27.5196 31.2929 27.7071C31.4804 27.8946 31.7348 28 32 28C32.2652 28 32.5196 27.8946 32.7071 27.7071C32.8946 27.5196 33 27.2652 33 27C33 25.6739 33.5268 24.4021 34.4645 23.4645C35.4021 22.5268 36.6739 22 38 22C39.3261 22 40.5979 22.5268 41.5355 23.4645C42.4732 24.4021 43 25.6739 43 27C43 32.565 34.367 39.841 32 41.734Z" fill="#ffffff" id="id_136"></path>
</svg>