<svg width="64" height="64" viewBox="0 0 64 64" fill="none" xmlns="http://www.w3.org/2000/svg">
<path d="M47.818 16.4L38.629 20.075C38.507 20.1237 38.3958 20.196 38.3017 20.2877C38.2077 20.3794 38.1326 20.4887 38.0808 20.6094C38.0289 20.7302 38.0014 20.8599 37.9997 20.9912C37.9981 21.1226 38.0223 21.253 38.071 21.375C38.1197 21.497 38.192 21.6082 38.2837 21.7023C38.3754 21.7963 38.4847 21.8714 38.6054 21.9232C38.7262 21.9751 38.8559 22.0026 38.9872 22.0043C39.1186 22.0059 39.249 21.9817 39.371 21.933L43.443 20.3L44.729 23.517L39.553 26.105C39.402 26.1805 39.2725 26.293 39.1767 26.432C39.0809 26.571 39.0218 26.732 39.005 26.9L38.1 36H29C28.7348 36 28.4804 36.1054 28.2929 36.2929C28.1054 36.4804 28 36.7348 28 37C28 37.2652 28.1054 37.5196 28.2929 37.7071C28.4804 37.8946 28.7348 38 29 38H38.087L38.706 44.814C38.7285 45.0625 38.843 45.2936 39.0271 45.4619C39.2112 45.6303 39.4515 45.7238 39.701 45.724C39.731 45.724 39.762 45.724 39.793 45.724C39.9238 45.7121 40.051 45.6745 40.1673 45.6134C40.2835 45.5523 40.3866 45.4689 40.4707 45.368C40.5547 45.267 40.618 45.1505 40.6571 45.0251C40.6961 44.8997 40.71 44.7678 40.698 44.637L40.005 37L40.94 27.644L52.3 21.971C53.117 21.5675 53.7706 20.8954 54.1513 20.0675C54.532 19.2395 54.6166 18.3059 54.391 17.423L52.47 9.757C52.2615 8.98177 51.7569 8.31942 51.0649 7.91257C50.3729 7.50572 49.5487 7.38691 48.7699 7.58174C47.9912 7.77656 47.3201 8.26943 46.9011 8.95422C46.4822 9.639 46.3489 10.4609 46.53 11.243L47.818 16.4ZM49.243 9.47C49.5162 9.40196 49.8052 9.44516 50.0465 9.5901C50.2878 9.73505 50.4617 9.96989 50.53 10.243L52.446 17.909C52.5586 18.3504 52.5161 18.817 52.3257 19.2308C52.1353 19.6446 51.8085 19.9804 51.4 20.182L46.525 22.619L45.3 19.557L49.371 17.929C49.596 17.8394 49.7808 17.6712 49.8911 17.4557C50.0014 17.2401 50.0298 16.9919 49.971 16.757L48.471 10.757C48.4032 10.484 48.4464 10.1952 48.5911 9.95399C48.7358 9.71276 48.9702 9.53872 49.243 9.47V9.47Z" fill="#ffffff" id="id_137"></path>
<path d="M27.447 55.9C27.6753 55.7859 27.8513 55.5889 27.9391 55.3493C28.0269 55.1096 28.0197 54.8455 27.919 54.611L25.236 48.351L30.545 44.559L32.814 50.233C33.2566 51.3479 34.0249 52.3036 35.0186 52.9756C36.0123 53.6475 37.1854 54.0045 38.385 54H48C48.0016 55.3256 48.5289 56.5964 49.4662 57.5338C50.4036 58.4711 51.6744 58.9984 53 59C53.2652 59 53.5196 58.8946 53.7071 58.7071C53.8946 58.5196 54 58.2652 54 58V47C54 46.7348 53.8946 46.4804 53.7071 46.2929C53.5196 46.1054 53.2652 46 53 46H50C49.8025 46.0003 49.6095 46.0587 49.445 46.168L46.764 47.956L40.142 47.01C39.8794 46.9723 39.6127 47.0405 39.4004 47.1996C39.1881 47.3586 39.0477 47.5954 39.01 47.858C38.9723 48.1206 39.0405 48.3873 39.1996 48.5996C39.3586 48.8119 39.5954 48.9523 39.858 48.99L46.34 49.916L47.382 52H38.382C37.582 52.0028 36.7997 51.7643 36.1373 51.3156C35.4749 50.8669 34.9632 50.229 34.669 49.485L31.926 42.628C31.8697 42.4873 31.7822 42.3612 31.67 42.2593C31.5578 42.1574 31.4239 42.0823 31.2785 42.0398C31.133 41.9972 30.9798 41.9882 30.8304 42.0136C30.681 42.0389 30.5393 42.0979 30.416 42.186L23.416 47.186C23.2303 47.3186 23.0955 47.5107 23.034 47.7304C22.9726 47.9501 22.9881 48.1843 23.078 48.394L25.706 54.527L23.324 55.72L19.1 49.683C18.5776 48.944 18.3227 48.0491 18.3773 47.1458C18.4318 46.2425 18.7925 45.3848 19.4 44.714L25.741 37.669C25.8354 37.5642 25.9066 37.4406 25.9498 37.3064C25.9931 37.1721 26.0075 37.0302 25.992 36.89L24.992 27.89C24.977 27.7542 24.9342 27.6229 24.8665 27.5042C24.7987 27.3855 24.7073 27.282 24.598 27.2L21.011 24.51V19.625L25.551 21.895C25.6904 21.9645 25.8442 22.0005 26 22H28C28 23.0609 28.4214 24.0783 29.1716 24.8284C29.9217 25.5786 30.9391 26 32 26C33.0609 26 34.0783 25.5786 34.8284 24.8284C35.5786 24.0783 36 23.0609 36 22V20.46C36.6285 19.8993 37.1316 19.2121 37.4762 18.4436C37.8209 17.675 37.9994 16.8423 38 16V14.37C39.0999 13.8115 39.9793 12.8984 40.4961 11.7782C41.0128 10.6581 41.1366 9.39641 40.8475 8.19718C40.5584 6.99795 39.8732 5.93128 38.9029 5.16964C37.9325 4.408 36.7336 3.99591 35.5 4H34.115C31.4504 3.99737 28.8258 3.35067 26.465 2.115C26.3472 2.05306 26.2183 2.01525 26.0857 2.00378C25.9531 1.99231 25.8196 2.00741 25.693 2.0482C25.5663 2.08899 25.4491 2.15465 25.3481 2.24133C25.2471 2.32801 25.1645 2.43397 25.105 2.553L23.99 4.784C23.2785 6.20065 23.0899 7.82304 23.4576 9.3651C23.8254 10.9072 24.7257 12.2699 26 13.213V16C26.0004 17.478 26.5491 18.9033 27.54 20H26.24L20.5 17.132C20.3361 17.0374 20.1487 16.9912 19.9596 16.9988C19.7705 17.0065 19.5874 17.0676 19.4317 17.1752C19.2759 17.2827 19.1539 17.4323 19.0798 17.6064C19.0057 17.7806 18.9825 17.9722 19.013 18.159V23.2L14.174 20.176C13.2362 19.5894 12.4505 18.7893 11.881 17.841L8.119 11.567C7.95998 11.2852 7.91662 10.9527 7.99805 10.6396C8.07948 10.3264 8.27935 10.0571 8.55549 9.88852C8.83164 9.7199 9.16248 9.66512 9.47823 9.73573C9.79399 9.80634 10.07 9.99682 10.248 10.267L14.165 16.533C14.2768 16.7142 14.4441 16.8545 14.642 16.933L16.442 17.652C16.5647 17.7052 16.6968 17.7332 16.8305 17.7345C16.9642 17.7357 17.0968 17.7102 17.2204 17.6593C17.3441 17.6084 17.4562 17.5332 17.5503 17.4382C17.6444 17.3432 17.7185 17.2303 17.7682 17.1062C17.8179 16.9821 17.8422 16.8492 17.8396 16.7155C17.8371 16.5819 17.8078 16.45 17.7534 16.3279C17.699 16.2057 17.6207 16.0957 17.5231 16.0044C17.4255 15.913 17.3105 15.8422 17.185 15.796L15.69 15.196L11.943 9.2C11.7198 8.83604 11.427 8.51962 11.0815 8.2688C10.7359 8.01798 10.3444 7.83767 9.92917 7.73817C9.0906 7.53723 8.20655 7.67763 7.4715 8.1285C6.73645 8.57937 6.21062 9.30377 6.00967 10.1423C5.80873 10.9809 5.94913 11.865 6.4 12.6L10.162 18.869C10.8949 20.0867 11.9046 21.1145 13.109 21.869L19.371 25.783L19.396 25.802L23.05 28.543L23.95 36.667L17.909 43.378C16.9973 44.3838 16.4554 45.6701 16.3727 47.0251C16.29 48.3801 16.6714 49.7228 17.454 50.832L21.125 56.077C19.9695 56.284 18.9233 56.8903 18.1694 57.7902C17.4154 58.69 17.0015 59.8261 17 61C17 61.2652 17.1054 61.5196 17.2929 61.7071C17.4804 61.8946 17.7348 62 18 62H29C29.2652 62 29.5196 61.8946 29.7071 61.7071C29.8946 61.5196 30 61.2652 30 61V58C30 57.7348 29.8946 57.4804 29.7071 57.2929C29.5196 57.1054 29.2652 57 29 57C28.7348 57 28.4804 57.1054 28.2929 57.2929C28.1054 57.4804 28 57.7348 28 58V60H19.171C19.3786 59.4155 19.7619 58.9095 20.2684 58.5514C20.7749 58.1934 21.3797 58.0008 22 58H23C23.1547 57.9975 23.3067 57.9592 23.444 57.888L27.447 55.9ZM34 22C34 22.5304 33.7893 23.0391 33.4142 23.4142C33.0391 23.7893 32.5304 24 32 24C31.4696 24 30.9609 23.7893 30.5858 23.4142C30.2107 23.0391 30 22.5304 30 22V21.65C31.2925 22.1167 32.7075 22.1167 34 21.65V22ZM36 16C36 17.0609 35.5786 18.0783 34.8284 18.8284C34.0783 19.5786 33.0609 20 32 20C30.9391 20 29.9217 19.5786 29.1716 18.8284C28.4214 18.0783 28 17.0609 28 16V11.535L30.016 10.191C31.8325 11.2728 33.888 11.8894 36 11.986V16ZM25.368 8.743C25.1627 7.70431 25.3072 6.62686 25.779 5.679L26.451 4.334C28.8578 5.42896 31.4708 5.99697 34.115 6H35.5C36.4283 6 37.3185 6.36875 37.9749 7.02513C38.6312 7.68151 39 8.57174 39 9.5C38.9977 10.4091 38.6386 11.281 38 11.928V11C38 10.7348 37.8946 10.4804 37.7071 10.2929C37.5196 10.1054 37.2652 10 37 10H36.6C34.4464 10.0023 32.3406 9.36468 30.55 8.168C30.3857 8.05836 30.1926 7.99985 29.995 7.99985C29.7975 7.99985 29.6043 8.05836 29.44 8.168L26.44 10.168C26.3081 10.2563 26.1994 10.3749 26.123 10.514C25.7522 9.98188 25.4952 9.37898 25.368 8.743V8.743ZM48.289 49.343L50.3 48H52V56.829C51.4155 56.6214 50.9095 56.2381 50.5514 55.7316C50.1934 55.2251 50.0008 54.6203 50 54V53C49.9972 52.8453 49.9578 52.6935 49.885 52.557L48.289 49.343Z" fill="#ffffff" id="id_138"></path>
<path d="M15 28H7C6.73478 28 6.48043 28.1054 6.29289 28.2929C6.10536 28.4804 6 28.7348 6 29V34.184C5.67974 34.0656 5.34144 34.0033 5 34C4.40666 34 3.82664 34.1759 3.33329 34.5056C2.83994 34.8352 2.45543 35.3038 2.22836 35.852C2.0013 36.4001 1.94189 37.0033 2.05765 37.5853C2.1734 38.1672 2.45912 38.7018 2.87868 39.1213C3.29824 39.5409 3.83279 39.8266 4.41473 39.9424C4.99667 40.0581 5.59987 39.9987 6.14805 39.7716C6.69623 39.5446 7.16477 39.1601 7.49441 38.6667C7.82405 38.1734 8 37.5933 8 37V34H14V37.184C13.6797 37.0656 13.3414 37.0033 13 37C12.4067 37 11.8266 37.1759 11.3333 37.5056C10.8399 37.8352 10.4554 38.3038 10.2284 38.852C10.0013 39.4001 9.94189 40.0033 10.0576 40.5853C10.1734 41.1672 10.4591 41.7018 10.8787 42.1213C11.2982 42.5409 11.8328 42.8266 12.4147 42.9424C12.9967 43.0581 13.5999 42.9987 14.1481 42.7716C14.6962 42.5446 15.1648 42.1601 15.4944 41.6667C15.8241 41.1734 16 40.5933 16 40V29C16 28.7348 15.8946 28.4804 15.7071 28.2929C15.5196 28.1054 15.2652 28 15 28ZM5 38C4.80222 38 4.60888 37.9414 4.44443 37.8315C4.27998 37.7216 4.15181 37.5654 4.07612 37.3827C4.00043 37.2 3.98063 36.9989 4.01922 36.8049C4.0578 36.6109 4.15304 36.4327 4.29289 36.2929C4.43275 36.153 4.61093 36.0578 4.80491 36.0192C4.99889 35.9806 5.19996 36.0004 5.38268 36.0761C5.56541 36.1518 5.72159 36.28 5.83147 36.4444C5.94135 36.6089 6 36.8022 6 37C6 37.2652 5.89464 37.5196 5.70711 37.7071C5.51957 37.8946 5.26522 38 5 38ZM8 30H14V32H8V30ZM13 41C12.8022 41 12.6089 40.9414 12.4444 40.8315C12.28 40.7216 12.1518 40.5654 12.0761 40.3827C12.0004 40.2 11.9806 39.9989 12.0192 39.8049C12.0578 39.6109 12.153 39.4327 12.2929 39.2929C12.4327 39.153 12.6109 39.0578 12.8049 39.0192C12.9989 38.9806 13.2 39.0004 13.3827 39.0761C13.5654 39.1518 13.7216 39.28 13.8315 39.4444C13.9414 39.6089 14 39.8022 14 40C14 40.2652 13.8946 40.5196 13.7071 40.7071C13.5196 40.8946 13.2652 41 13 41Z" fill="#ffffff" id="id_139"></path>
<path d="M59.964 26.474L54.764 29.474C54.4224 29.6708 54.1229 29.9331 53.8827 30.2457C53.6426 30.5583 53.4664 30.9152 53.3642 31.296C53.262 31.6768 53.2359 32.074 53.2874 32.4648C53.3388 32.8557 53.4668 33.2326 53.664 33.574L54.664 35.306L56.26 38.06C55.6363 38.1773 55.0661 38.49 54.632 38.9528C54.1978 39.4156 53.9221 40.0046 53.8448 40.6345C53.7676 41.2644 53.8927 41.9025 54.2022 42.4565C54.5117 43.0106 54.9894 43.4518 55.5662 43.7163C56.143 43.9809 56.7891 44.055 57.4109 43.928C58.0326 43.801 58.5979 43.4795 59.0248 43.01C59.4517 42.5405 59.7182 41.9473 59.7857 41.3163C59.8531 40.6853 59.718 40.0492 59.4 39.5L56.9 35.17L59.5 33.67C60.6473 33.006 61.4844 31.914 61.8277 30.6336C62.1709 29.3532 61.9923 27.9889 61.331 26.84C61.2653 26.7261 61.1779 26.6264 61.0736 26.5463C60.9693 26.4663 60.8503 26.4076 60.7234 26.3736C60.5964 26.3396 60.464 26.331 60.3337 26.3482C60.2034 26.3654 60.0778 26.4082 59.964 26.474V26.474ZM57.77 41.259C57.71 41.4824 57.5744 41.678 57.3863 41.8127C57.1982 41.9473 56.9693 42.0125 56.7385 41.9973C56.5077 41.9821 56.2893 41.8874 56.1205 41.7292C55.9517 41.571 55.843 41.3593 55.8128 41.13C55.7826 40.9006 55.8329 40.6679 55.955 40.4715C56.0771 40.2751 56.2636 40.127 56.4826 40.0526C56.7016 39.9782 56.9396 39.9821 57.1561 40.0634C57.3726 40.1448 57.5542 40.2988 57.67 40.499V40.499C57.7358 40.6129 57.7785 40.7386 57.7957 40.869C57.8129 40.9995 57.8041 41.132 57.77 41.259V41.259ZM58.499 31.938L55.899 33.438L55.399 32.572C55.3334 32.4582 55.2908 32.3326 55.2738 32.2024C55.2567 32.0721 55.2654 31.9398 55.2995 31.813C55.3336 31.6861 55.3923 31.5672 55.4724 31.4631C55.5524 31.3589 55.6522 31.2716 55.766 31.206L59.947 28.792C60.0605 29.4016 59.9824 30.0315 59.7232 30.5949C59.4641 31.1582 59.0368 31.6275 58.5 31.938H58.499Z" fill="#ffffff" id="id_140"></path>
<path d="M16.475 8.957H17.475V9.957C17.475 10.2222 17.5804 10.4766 17.7679 10.6641C17.9554 10.8516 18.2098 10.957 18.475 10.957C18.7402 10.957 18.9946 10.8516 19.1821 10.6641C19.3696 10.4766 19.475 10.2222 19.475 9.957V8.957H20.475C20.7402 8.957 20.9946 8.85164 21.1821 8.66411C21.3696 8.47657 21.475 8.22222 21.475 7.957C21.475 7.69178 21.3696 7.43743 21.1821 7.24989C20.9946 7.06236 20.7402 6.957 20.475 6.957H19.475V5.957C19.475 5.69178 19.3696 5.43743 19.1821 5.24989C18.9946 5.06236 18.7402 4.957 18.475 4.957C18.2098 4.957 17.9554 5.06236 17.7679 5.24989C17.5804 5.43743 17.475 5.69178 17.475 5.957V6.957H16.475C16.2098 6.957 15.9554 7.06236 15.7679 7.24989C15.5804 7.43743 15.475 7.69178 15.475 7.957C15.475 8.22222 15.5804 8.47657 15.7679 8.66411C15.9554 8.85164 16.2098 8.957 16.475 8.957Z" fill="#ffffff" id="id_141"></path>
<path d="M8 49H7V48C7 47.7348 6.89464 47.4804 6.70711 47.2929C6.51957 47.1054 6.26522 47 6 47C5.73478 47 5.48043 47.1054 5.29289 47.2929C5.10536 47.4804 5 47.7348 5 48V49H4C3.73478 49 3.48043 49.1054 3.29289 49.2929C3.10536 49.4804 3 49.7348 3 50C3 50.2652 3.10536 50.5196 3.29289 50.7071C3.48043 50.8946 3.73478 51 4 51H5V52C5 52.2652 5.10536 52.5196 5.29289 52.7071C5.48043 52.8946 5.73478 53 6 53C6.26522 53 6.51957 52.8946 6.70711 52.7071C6.89464 52.5196 7 52.2652 7 52V51H8C8.26522 51 8.51957 50.8946 8.70711 50.7071C8.89464 50.5196 9 50.2652 9 50C9 49.7348 8.89464 49.4804 8.70711 49.2929C8.51957 49.1054 8.26522 49 8 49V49Z" fill="#ffffff" id="id_142"></path>
<path d="M46 42C46.2652 42 46.5196 41.8946 46.7071 41.7071C46.8946 41.5196 47 41.2652 47 41V40H48C48.2652 40 48.5196 39.8946 48.7071 39.7071C48.8946 39.5196 49 39.2652 49 39C49 38.7348 48.8946 38.4804 48.7071 38.2929C48.5196 38.1054 48.2652 38 48 38H47V37C47 36.7348 46.8946 36.4804 46.7071 36.2929C46.5196 36.1054 46.2652 36 46 36C45.7348 36 45.4804 36.1054 45.2929 36.2929C45.1054 36.4804 45 36.7348 45 37V38H44C43.7348 38 43.4804 38.1054 43.2929 38.2929C43.1054 38.4804 43 38.7348 43 39C43 39.2652 43.1054 39.5196 43.2929 39.7071C43.4804 39.8946 43.7348 40 44 40H45V41C45 41.2652 45.1054 41.5196 45.2929 41.7071C45.4804 41.8946 45.7348 42 46 42Z" fill="#ffffff" id="id_143"></path>
<path d="M59 15C59.5933 15 60.1734 14.8241 60.6667 14.4944C61.1601 14.1648 61.5446 13.6962 61.7716 13.1481C61.9987 12.5999 62.0581 11.9967 61.9424 11.4147C61.8266 10.8328 61.5409 10.2982 61.1213 9.87868C60.7018 9.45912 60.1672 9.1734 59.5853 9.05765C59.0033 8.94189 58.4001 9.0013 57.852 9.22836C57.3038 9.45543 56.8352 9.83994 56.5056 10.3333C56.1759 10.8266 56 11.4067 56 12C56 12.7957 56.3161 13.5587 56.8787 14.1213C57.4413 14.6839 58.2044 15 59 15V15ZM59 11C59.1978 11 59.3911 11.0587 59.5556 11.1685C59.72 11.2784 59.8482 11.4346 59.9239 11.6173C59.9996 11.8 60.0194 12.0011 59.9808 12.1951C59.9422 12.3891 59.847 12.5673 59.7071 12.7071C59.5673 12.847 59.3891 12.9422 59.1951 12.9808C59.0011 13.0194 58.8 12.9996 58.6173 12.9239C58.4346 12.8482 58.2784 12.72 58.1685 12.5556C58.0586 12.3911 58 12.1978 58 12C58 11.7348 58.1054 11.4804 58.2929 11.2929C58.4804 11.1054 58.7348 11 59 11Z" fill="#ffffff" id="id_144"></path>
<path d="M4 4C4.55228 4 5 3.55228 5 3C5 2.44772 4.55228 2 4 2C3.44772 2 3 2.44772 3 3C3 3.55228 3.44772 4 4 4Z" fill="#ffffff" id="id_145"></path>
<path d="M5.474 19.956C6.02629 19.956 6.474 19.5083 6.474 18.956C6.474 18.4037 6.02629 17.956 5.474 17.956C4.92172 17.956 4.474 18.4037 4.474 18.956C4.474 19.5083 4.92172 19.956 5.474 19.956Z" fill="#ffffff" id="id_146"></path>
<path d="M49 31.34C49.5523 31.34 50 30.8923 50 30.34C50 29.7877 49.5523 29.34 49 29.34C48.4477 29.34 48 29.7877 48 30.34C48 30.8923 48.4477 31.34 49 31.34Z" fill="#ffffff" id="id_147"></path>
<path d="M49 5C49.5523 5 50 4.55228 50 4C50 3.44772 49.5523 3 49 3C48.4477 3 48 3.44772 48 4C48 4.55228 48.4477 5 49 5Z" fill="#ffffff" id="id_148"></path>
</svg>