<svg id="Outline" xmlns="http://www.w3.org/2000/svg" viewBox="0 0 64 64"><path d="M45,20A13.009,13.009,0,0,0,33,7.051V2H31V7.051A12.994,12.994,0,1,0,45,20ZM21.124,18.44A18.715,18.715,0,0,1,23.8,16.884c-.08.7-.129,1.409-.154,2.116H21.051C21.068,18.811,21.1,18.626,21.124,18.44ZM21.051,21h2.593c.025.707.074,1.413.154,2.116a18.715,18.715,0,0,1-2.674-1.556C21.1,21.374,21.068,21.189,21.051,21Zm.878,3.409a20.961,20.961,0,0,0,2.242,1.055,27.468,27.468,0,0,0,.77,2.961A11.054,11.054,0,0,1,21.929,24.409Zm2.242-9.873a20.769,20.769,0,0,0-2.242,1.055,11.054,11.054,0,0,1,3.012-4.016A27.642,27.642,0,0,0,24.171,14.536ZM31,30.949a10.865,10.865,0,0,1-3.281-.817,25.536,25.536,0,0,1-1.33-3.93A21.2,21.2,0,0,0,31,26.934Zm0-6.013a19.136,19.136,0,0,1-5.069-.949A25.607,25.607,0,0,1,25.643,21H31ZM31,19H25.643a25.607,25.607,0,0,1,.288-2.987A19.136,19.136,0,0,1,31,15.064Zm0-5.934a21.194,21.194,0,0,0-4.611.731,25.524,25.524,0,0,1,1.33-3.929A10.865,10.865,0,0,1,31,9.051ZM42.876,21.56A18.715,18.715,0,0,1,40.2,23.116c.08-.7.129-1.409.154-2.116h2.593C42.932,21.189,42.9,21.374,42.876,21.56ZM42.949,19H40.356c-.025-.707-.074-1.413-.154-2.116a18.715,18.715,0,0,1,2.674,1.556C42.9,18.626,42.932,18.811,42.949,19Zm-.878-3.409a20.769,20.769,0,0,0-2.242-1.055,27.642,27.642,0,0,0-.77-2.961A11.045,11.045,0,0,1,42.071,15.591ZM33,9.051a10.865,10.865,0,0,1,3.281.817,25.524,25.524,0,0,1,1.33,3.929A21.194,21.194,0,0,0,33,13.066Zm3.281,21.081A10.865,10.865,0,0,1,33,30.949V26.934a21.2,21.2,0,0,0,4.611-.732A25.536,25.536,0,0,1,36.281,30.132Zm1.788-6.145A19.136,19.136,0,0,1,33,24.936V21h5.357A25.607,25.607,0,0,1,38.069,23.987ZM33,19V15.064a19.136,19.136,0,0,1,5.069.949A25.607,25.607,0,0,1,38.357,19Zm6.059,9.425a27.468,27.468,0,0,0,.77-2.961,20.961,20.961,0,0,0,2.242-1.055A11.054,11.054,0,0,1,39.059,28.425Z" id="id_167" style="fill: rgb(255, 255, 255);"></path><path d="M61,27c-1.394,0-2.571-1.832-2.571-4a1,1,0,0,0-2,0c0,2.168-1.178,4-2.572,4a1,1,0,0,0,0,2c1.394,0,2.572,1.832,2.572,4a1,1,0,0,0,2,0c0-2.168,1.177-4,2.571-4a1,1,0,0,0,0-2Zm-3.571,2.213A5.217,5.217,0,0,0,56.417,28a5.217,5.217,0,0,0,1.012-1.213A5.238,5.238,0,0,0,58.44,28,5.238,5.238,0,0,0,57.429,29.213Z" id="id_168" style="fill: rgb(255, 255, 255);"></path><path d="M12.571,21a1,1,0,0,0,2,0c0-2.168,1.178-4,2.572-4a1,1,0,0,0,0-2c-1.394,0-2.572-1.832-2.572-4a1,1,0,0,0-2,0c0,2.168-1.177,4-2.571,4a1,1,0,0,0,0,2C11.394,17,12.571,18.832,12.571,21Zm1-6.213A5.217,5.217,0,0,0,14.583,16a5.217,5.217,0,0,0-1.012,1.213A5.238,5.238,0,0,0,12.56,16,5.238,5.238,0,0,0,13.571,14.787Z" id="id_169" style="fill: rgb(255, 255, 255);"></path><path d="M6,44c2.168,0,4,2.748,4,6a1,1,0,0,0,2,0c0-3.252,1.832-6,4-6a1,1,0,0,0,0-2c-2.168,0-4-2.748-4-6a1,1,0,0,0-2,0c0,3.252-1.832,6-4,6a1,1,0,0,0,0,2Zm5-3.582A7.165,7.165,0,0,0,13.1,43,7.165,7.165,0,0,0,11,45.582,7.165,7.165,0,0,0,8.9,43,7.165,7.165,0,0,0,11,40.418Z" id="id_170" style="fill: rgb(255, 255, 255);"></path><path d="M49,48a4,4,0,1,0-4-4A4,4,0,0,0,49,48Zm0-6a2,2,0,1,1-2,2A2,2,0,0,1,49,42Z" id="id_171" style="fill: rgb(255, 255, 255);"></path><path d="M22,39a3,3,0,1,0,3-3A3,3,0,0,0,22,39Zm4,0a1,1,0,1,1-1-1A1,1,0,0,1,26,39Z" id="id_172" style="fill: rgb(255, 255, 255);"></path><path d="M56,15a3,3,0,1,0-3,3A3,3,0,0,0,56,15Zm-4,0a1,1,0,1,1,1,1A1,1,0,0,1,52,15Z" id="id_173" style="fill: rgb(255, 255, 255);"></path><path d="M8,31a3,3,0,1,0-3,3A3,3,0,0,0,8,31ZM5,32a1,1,0,1,1,1-1A1,1,0,0,1,5,32Z" id="id_174" style="fill: rgb(255, 255, 255);"></path><rect x="36" y="35.576" width="2.001" height="9.849" transform="translate(-13.26 18.518) rotate(-23.962)" id="id_175" style="fill: rgb(255, 255, 255);"></rect><rect x="44.5" y="31.379" width="2" height="4.243" transform="translate(-10.361 41.985) rotate(-45)" id="id_176" style="fill: rgb(255, 255, 255);"></rect><rect x="15.379" y="29.5" width="4.243" height="2" transform="translate(-16.441 21.308) rotate(-45)" id="id_177" style="fill: rgb(255, 255, 255);"></rect><rect x="13.172" y="55" width="5.657" height="2" transform="translate(-34.912 27.716) rotate(-45)" id="id_178" style="fill: rgb(255, 255, 255);"></rect><rect x="31" y="49" width="2" height="5" id="id_179" style="fill: rgb(255, 255, 255);"></rect><rect x="58" y="42.697" width="2" height="3.606" transform="translate(-14.775 40.201) rotate(-33.69)" id="id_180" style="fill: rgb(255, 255, 255);"></rect><path d="M38,57c1.394,0,2.571,1.832,2.571,4a1,1,0,0,0,2,0c0-2.168,1.178-4,2.572-4a1,1,0,0,0,0-2c-1.394,0-2.572-1.832-2.572-4a1,1,0,0,0-2,0c0,2.168-1.177,4-2.571,4a1,1,0,0,0,0,2Zm3.571-2.213A5.217,5.217,0,0,0,42.583,56a5.217,5.217,0,0,0-1.012,1.213A5.238,5.238,0,0,0,40.56,56,5.238,5.238,0,0,0,41.571,54.787Z" id="id_181" style="fill: rgb(255, 255, 255);"></path></svg>