<svg xmlns="http://www.w3.org/2000/svg" xml:space="preserve" width="512px" height="512px" version="1.1" style="shape-rendering:geometricPrecision; text-rendering:geometricPrecision; image-rendering:optimizeQuality; fill-rule:evenodd; clip-rule:evenodd" viewBox="0 0 512 512" xmlns:xlink="http://www.w3.org/1999/xlink">
 <defs>
  <style type="text/css">
   
    .fil0 {fill:black}
   
  </style>
 </defs>
 <g id="Layer_x0020_1">
  <metadata id="CorelCorpID_0Corel-Layer"></metadata>
  <g id="_351664296">
   <g>
    <g id="_351663888">
     <path class="fil0" d="M296 473c-4,0 -7,-3 -7,-7l0 -147c0,-4 3,-7 6,-7 34,-1 58,-11 73,-29 32,-37 22,-107 15,-163 -1,-6 -2,-11 -2,-17l-201 0c-1,6 -1,11 -2,17 -8,56 -17,126 14,163 16,18 40,28 73,29 4,0 7,3 7,7l0 147c0,4 -3,7 -7,7 -4,0 -7,-3 -7,-7l0 -140c-34,-3 -60,-14 -76,-34 -36,-42 -26,-115 -18,-173 1,-9 2,-16 3,-24 0,-3 3,-6 7,-6l213 0c3,0 6,3 7,6 1,8 2,15 3,24 8,58 17,131 -18,173 -17,20 -42,31 -76,34l0 140c0,4 -4,7 -7,7z" id="id_117" style="fill: rgb(255, 255, 255);"></path>
    </g>
    <g id="_351663312">
     <path class="fil0" d="M392 144l-224 0c-3,0 -7,-3 -7,-7 0,-4 4,-7 7,-7l224 0c4,0 7,3 7,7 0,4 -3,7 -7,7z" id="id_118" style="fill: rgb(255, 255, 255);"></path>
    </g>
    <g id="_351664344">
     <path class="fil0" d="M356 512l-151 0c-4,0 -7,-3 -7,-7l0 -20c0,-14 12,-26 26,-26l112 0c15,0 27,12 27,26l0 20c0,4 -3,7 -7,7zm-144 -14l137 0 0 -13c0,-6 -6,-12 -13,-12l-112 0c-7,0 -12,6 -12,12l0 13z" id="id_119" style="fill: rgb(255, 255, 255);"></path>
    </g>
    <g id="_351663096">
     <path class="fil0" d="M166 161c0,0 0,0 0,0 -33,-4 -58,-32 -58,-65 0,-36 29,-66 66,-66 36,0 65,30 65,66 0,4 -3,7 -7,7 -3,0 -7,-3 -7,-7 0,-29 -23,-52 -51,-52 -29,0 -52,23 -52,52 0,26 19,48 45,51 4,1 7,4 6,8 0,4 -3,6 -7,6z" id="id_120" style="fill: rgb(255, 255, 255);"></path>
    </g>
    <g id="_351663144">
     <path class="fil0" d="M174 103c-4,0 -7,-3 -7,-7l0 -59c0,-4 3,-7 7,-7 3,0 7,3 7,7l0 59c0,4 -4,7 -7,7z" id="id_121" style="fill: rgb(255, 255, 255);"></path>
    </g>
    <g id="_351662688">
     <path class="fil0" d="M174 103c-2,0 -4,-1 -5,-2 -3,-3 -3,-7 0,-10l41 -42c3,-2 7,-2 10,0 3,3 3,8 0,10l-41 42c-2,1 -4,2 -5,2z" id="id_122" style="fill: rgb(255, 255, 255);"></path>
    </g>
    <g id="_351664104">
     <path class="fil0" d="M232 103l-58 0c-4,0 -7,-3 -7,-7 0,-4 3,-7 7,-7l58 0c4,0 7,3 7,7 0,4 -3,7 -7,7z" id="id_123" style="fill: rgb(255, 255, 255);"></path>
    </g>
    <g id="_351663120">
     <path class="fil0" d="M174 103c-2,0 -4,0 -5,-2l0 0c-3,-3 -3,-7 0,-10 2,-3 7,-3 10,0l0 0c2,3 2,7 0,10 -2,2 -3,2 -5,2z" id="id_124" style="fill: rgb(255, 255, 255);"></path>
    </g>
    <g id="_351664416">
     <path class="fil0" d="M174 105c-4,0 -7,-3 -7,-7l0 -2c0,-4 3,-7 7,-7 3,0 7,3 7,7l0 2c0,4 -4,7 -7,7z" id="id_125" style="fill: rgb(255, 255, 255);"></path>
    </g>
    <g id="_351664488">
     <path class="fil0" d="M132 145c-2,0 -4,-1 -5,-2 -3,-3 -3,-8 0,-10l42 -42c2,-3 7,-3 10,0 2,3 2,7 0,10l-42 42c-1,1 -3,2 -5,2z" id="id_126" style="fill: rgb(255, 255, 255);"></path>
    </g>
    <g id="_351664560">
     <path class="fil0" d="M174 103l-59 0c-4,0 -7,-3 -7,-7 0,-4 3,-7 7,-7l59 0c3,0 7,3 7,7 0,4 -4,7 -7,7z" id="id_127" style="fill: rgb(255, 255, 255);"></path>
    </g>
    <g id="_351664632">
     <path class="fil0" d="M174 103c-2,0 -4,-1 -5,-2l-42 -42c-3,-2 -3,-7 0,-10 3,-2 7,-2 10,0l42 42c2,3 2,7 0,10 -2,1 -4,2 -5,2z" id="id_128" style="fill: rgb(255, 255, 255);"></path>
    </g>
    <g id="_351662880">
     <path class="fil0" d="M237 205c-1,0 -2,0 -2,0 -4,-1 -6,-5 -5,-9l16 -61c1,-4 5,-6 9,-5 4,1 6,5 5,9l-17 61c0,3 -3,5 -6,5zm27 -102c-1,0 -1,0 -2,0 -4,-1 -6,-5 -5,-9l17 -64c1,-2 2,-3 4,-4l42 -25c4,-2 8,-1 10,3 2,3 1,7 -3,9l-40 23 -16 62c-1,3 -4,5 -7,5z" id="id_129" style="fill: rgb(255, 255, 255);"></path>
    </g>
    <g>
     <g id="_351664800">
      <path class="fil0" d="M239 278c-14,0 -26,-12 -26,-26 0,-14 12,-25 26,-25 14,0 26,11 26,25 0,14 -12,26 -26,26zm0 -37c-6,0 -12,5 -12,11 0,6 6,12 12,12 6,0 12,-6 12,-12 0,-6 -6,-11 -12,-11z" id="id_130" style="fill: rgb(255, 255, 255);"></path>
     </g>
     <g id="_351664872">
      <path class="fil0" d="M322 223c-14,0 -26,-11 -26,-26 0,-14 12,-25 26,-25 14,0 26,11 26,25 0,15 -12,26 -26,26zm0 -37c-6,0 -12,5 -12,11 0,7 6,12 12,12 6,0 12,-5 12,-12 0,-6 -6,-11 -12,-11z" id="id_131" style="fill: rgb(255, 255, 255);"></path>
     </g>
     <g id="_351664944">
      <path class="fil0" d="M309 285c-12,0 -22,-10 -22,-23 0,-12 10,-23 22,-23 13,0 23,11 23,23 0,13 -10,23 -23,23zm0 -32c-4,0 -8,4 -8,9 0,5 4,9 8,9 5,0 9,-4 9,-9 0,-5 -4,-9 -9,-9z" id="id_132" style="fill: rgb(255, 255, 255);"></path>
     </g>
    </g>
   </g>
  </g>
 </g>
</svg>